<svg xmlns="http://www.w3.org/2000/svg" viewBox="0 0 213.7 76.09"><defs><style>.cls-1{font-size:22.66px;letter-spacing:0.1em;}.cls-1,.cls-2{fill:#231815;font-family:NotoSansCJKtc-Light-B5pc-H, Noto Sans CJK TC;}.cls-2{font-size:12px;letter-spacing:0.48em;}.cls-3{letter-spacing:0.46em;}.cls-4{fill:#daaa4f;}.cls-5{fill:#985054;}</style></defs><title>chuanShopLOGO</title><g id="圖層_2" data-name="圖層 2"><text class="cls-1" transform="translate(71.05 36)"><tspan xml:space="preserve">串    精    選</tspan></text><text class="cls-2" transform="translate(74.05 58.78)">CH<tspan class="cls-3" x="27.66" y="0">U</tspan><tspan x="41.69" y="0">AN SHOP</tspan></text><polygon class="cls-4" points="39.69 40.12 39.69 35.92 35.15 35.92 35.15 49.46 17.95 49.46 17.95 44.14 31.21 44.14 31.21 40.12 13.47 40.12 13.47 44.14 13.47 44.14 13.47 49.46 13.47 49.46 13.47 53.59 35.15 53.59 35.15 66.97 39.69 66.97 39.69 53.59 39.69 49.46 39.69 44.25 56.84 44.25 56.84 49.52 43.56 49.52 43.56 53.53 56.84 53.53 56.84 53.53 61.32 53.53 61.32 53.53 61.32 49.52 61.32 44.25 61.32 40.18 61.32 40.12 39.69 40.12"/><polygon class="cls-5" points="39.64 18.27 39.64 6.68 35.16 6.68 35.16 27.64 35.13 27.64 17.95 27.64 17.95 22.32 30.86 22.32 30.86 18.3 13.47 18.3 13.47 22.32 13.47 22.32 13.47 27.64 13.47 27.64 13.47 31.77 35.13 31.77 35.13 35.95 39.64 35.95 39.64 31.77 39.64 27.64 39.64 22.41 56.83 22.41 56.83 27.72 43.57 27.72 43.57 31.74 61.31 31.74 61.31 31.74 61.31 27.72 61.31 22.41 61.31 18.33 61.31 18.27 39.64 18.27"/></g></svg>