<svg width="48" height="48" xmlns="http://www.w3.org/2000/svg">

 <g>
  <title>background</title>
  <rect fill="none" id="canvas_background" height="402" width="582" y="-1" x="-1"/>
 </g>
 <g>
  <title>Layer 1</title>
  <path fill="#99B6BD" id="svg_1" d="m24,11.8c2.32,0 4.2,1.88 4.2,4.2s-1.88,4.2 -4.2,4.2s-4.2,-1.88 -4.2,-4.2s1.88,-4.2 4.2,-4.2m0,18c5.95,0 12.2,2.91 12.2,4.2l0,2.2l-24.4,0l0,-2.2c0,-1.29 6.25,-4.2 12.2,-4.2m0,-21.8c-4.42,0 -8,3.58 -8,8c0,4.41 3.58,8 8,8s8,-3.59 8,-8c0,-4.42 -3.58,-8 -8,-8zm0,18c-5.33,0 -16,2.67 -16,8l0,6l32,0l0,-6c0,-5.33 -10.67,-8 -16,-8z"/>
 </g>
</svg>