<svg id="圖層_1" data-name="圖層 1" xmlns="http://www.w3.org/2000/svg" xmlns:xlink="http://www.w3.org/1999/xlink" viewBox="0 0 447.73 447.72"><defs><style>.cls-1{fill:none;}.cls-2{clip-path:url(#clip-path);}.cls-3{fill:#96b2b9;}</style><clipPath id="clip-path" transform="translate(-30.88 -43.63)"><rect class="cls-1" width="512" height="512"/></clipPath></defs><title>iconfinder_38-instagram_104466</title><g class="cls-2"><path class="cls-3" d="M435,404.82a42.93,42.93,0,0,1-42.89,42.9H117.4a42.94,42.94,0,0,1-42.9-42.9V221.53h66.83A122.29,122.29,0,0,0,254.74,389.92c67.51,0,122.42-54.95,122.42-122.44a121.83,121.83,0,0,0-9-46H435ZM190.84,221.53a78.67,78.67,0,1,1-14.91,46A78.77,78.77,0,0,1,190.84,221.53ZM416.89,95.22l9.9,0v75.89l-75.63.24-.27-75.88ZM392.08,43.63H117.4a86.61,86.61,0,0,0-86.52,86.52V404.83a86.61,86.61,0,0,0,86.52,86.52H392.09a86.61,86.61,0,0,0,86.51-86.52V130.14A86.61,86.61,0,0,0,392.08,43.63Z" transform="translate(-30.88 -43.63)"/></g></svg>