<svg id="圖層_1" data-name="圖層 1" xmlns="http://www.w3.org/2000/svg" xmlns:xlink="http://www.w3.org/1999/xlink" viewBox="0 0 512 336"><defs><style>.cls-1{fill:none;}.cls-2{clip-path:url(#clip-path);}.cls-3{fill:#96b2b9;}</style><clipPath id="clip-path" transform="translate(0 -80)"><rect class="cls-1" width="512" height="512"/></clipPath></defs><title>iconfinder_mail_115714</title><g class="cls-2"><path class="cls-3" d="M275.18,297.63a32,32,0,0,1-38.38,0L170.64,248l-13.33-10L32,144v0a32,32,0,0,1,32-32H448a32,32,0,0,1,32,32ZM480,332,368,248l112-84Zm0,20a32,32,0,0,1-32,32H64a32,32,0,0,1-32-32l125.31-94,69.89,52.43a48,48,0,0,0,57.58,0L354.69,258ZM32,164l112,84L32,332ZM448,80H64A64,64,0,0,0,0,144V352a64,64,0,0,0,64,64H448a64,64,0,0,0,64-64V144A64,64,0,0,0,448,80Z" transform="translate(0 -80)"/></g></svg>