<svg xmlns="http://www.w3.org/2000/svg" viewBox="0 0 208.85 73.02"><defs><style>.cls-1{fill:#fff;}</style></defs><title>oomediaLOGO_bottom</title><g id="圖層_2" data-name="圖層 2"><path class="cls-1" d="M86.72,26.24v6.91H85.59V32.2H78.38v3.87H77.27V32.2h-7v1H69.14v-7h8.13V24H70V18.26h7.27V15.57h1.11v2.69H85.7V24H78.38v2.2Zm-9.45,5V27.26h-7V31.2Zm0-8.15V19.26H71.11v3.79Zm1.11-3.79v3.79h6.19V19.26ZM85.59,31.2V27.26H78.38V31.2Z"/><path class="cls-1" d="M128.11,21.6a21.88,21.88,0,0,1-1.52,8.9,23.41,23.41,0,0,1,2.65,2.79l-.68.86a27.08,27.08,0,0,0-2.45-2.7,15.15,15.15,0,0,1-3.82,4.6,3.08,3.08,0,0,0-.75-.65,15,15,0,0,0,3.83-4.65c-1.07-1-2.2-1.95-3.27-2.76a58.94,58.94,0,0,0,1.5-6.26l-1.84.12-.13-1.07,2.17-.09c.32-1.77.59-3.54.75-5.08l1,.05c-.19,1.52-.46,3.24-.75,5l2.35-.13V18.79h1v1.67l1.29-.07v1l-1.29.09Zm-3.56.06c-.41,2.22-.91,4.38-1.34,6,.87.66,1.75,1.38,2.59,2.13a20.7,20.7,0,0,0,1.33-8.18v-.11Zm9.31,9a11.72,11.72,0,0,1-3.94,5.05,3.13,3.13,0,0,0-.75-.79A10.3,10.3,0,0,0,133,30.34Zm2.36-1.2V36.1h-1.06V29.46h-5.67v-1h5.67v-2.4h-3.61V19.13h-2.26v-1h2.26V15.57h1v2.56h6.19V15.57h1v2.56H142v1h-2.2v7h-3.58v2.4h5.71v1Zm-3.65-10.33v2.51h6.19V19.13Zm0,6h6.19V22.55h-6.19Zm5.78,5.24a40.38,40.38,0,0,1,3.72,4.8l-.86.45a49.49,49.49,0,0,0-3.68-4.87Z"/><path class="cls-1" d="M183.36,34.74c0,.56-.13.84-.54,1a9.39,9.39,0,0,1-2.54.16,4.78,4.78,0,0,0-.36-.86c1,0,1.88,0,2.11,0s.36-.1.36-.34V31.23c-1.25.74-2.49,1.47-3.56,2.08l-.52-.86c1-.48,2.54-1.27,4.08-2.13v-4.1h-4.15v3.35c0,2-.22,4.69-1.58,6.62a2.48,2.48,0,0,0-.8-.68,10.38,10.38,0,0,0,1.43-5.94V25.33h6.07Zm.07-12.12h1V25.7h-.93V23.5h-6.39v2.2h-.93V22.62h1V16.45h6.3Zm-5.35,0h1.73V19.13h2.65V17.36h-4.38Zm3.2,7.38a17.45,17.45,0,0,0-2.58-2.15l.56-.61a18.34,18.34,0,0,1,2.68,2.06Zm1.18-10h-1.84v2.66h1.84Zm13.87,14.71v.91H184.68v-.91h3.6c-.23-.72-.59-1.68-.93-2.45l.91-.25a25.92,25.92,0,0,1,1,2.7h2.4a28.63,28.63,0,0,0,1.09-2.79l1,.32c-.39.79-.81,1.75-1.18,2.47Zm-.21-8.34H185v-.9h11.15ZM195.44,24h-9.92V17.38h2.9V15.59h1v1.79h2V15.59h1v1.79h3.08Zm-9.27,7.66V27.62h8.73v4.06Zm.28-11.44h2.06v-2h-2.06Zm0,2.9h2.06v-2h-2.06Zm.72,7.7h6.69V28.48h-6.69Zm4.26-10.6v-2h-2.06v2Zm-2.06.86v2h2.06v-2Zm5.12-2.84h-2.2v2h2.2Zm0,2.84h-2.2v2h2.2Z"/><path class="cls-1" d="M67.63,50.66c0-4.13,2.25-6.71,5.4-6.71s5.41,2.58,5.41,6.71-2.23,6.8-5.41,6.8S67.63,54.81,67.63,50.66Zm9.71,0c0-3.54-1.72-5.74-4.31-5.74s-4.28,2.2-4.28,5.74,1.7,5.83,4.28,5.83S77.34,54.2,77.34,50.66Z"/><path class="cls-1" d="M89.27,50.66c0-4.13,2.25-6.71,5.4-6.71s5.42,2.58,5.42,6.71-2.24,6.8-5.42,6.8S89.27,54.81,89.27,50.66Zm9.71,0c0-3.54-1.72-5.74-4.31-5.74s-4.28,2.2-4.28,5.74,1.7,5.83,4.28,5.83S99,54.2,99,50.66Z"/><path class="cls-1" d="M111.73,44.19h1.43l2.69,7.49,1,2.86h.07c.34-.95.64-1.91,1-2.86l2.68-7.49H122v13h-1V49c0-1.07.07-2.5.12-3.59h-.07l-1,2.91-2.74,7.55h-.85l-2.76-7.55-1-2.91h-.07c0,1.09.13,2.52.13,3.59v8.26h-1Z"/><path class="cls-1" d="M134.46,44.19h7.21v.91h-6.13v4.75h5.17v.92h-5.17v5.52h6.33v.93h-7.41Z"/><path class="cls-1" d="M153.37,44.19h3.08c4,0,6,2.48,6,6.47s-2,6.56-6,6.56h-3.09Zm3,12.12c3.43,0,4.95-2.27,4.95-5.65s-1.52-5.58-4.95-5.58h-1.9V56.31Z"/><path class="cls-1" d="M174.05,44.19h1.07v13h-1.07Z"/><path class="cls-1" d="M193.45,52.84h-5.08l-1.48,4.38h-1.07l4.56-13h1.11l4.56,13H194.9Zm-.28-.86-.79-2.36c-.54-1.52-1-2.89-1.43-4.47h-.07c-.45,1.58-.9,3-1.42,4.47l-.8,2.36Z"/><polygon class="cls-1" points="35.19 38.57 35.19 34.36 30.66 34.36 30.66 47.91 13.45 47.91 13.45 42.59 26.71 42.59 26.71 38.57 8.97 38.57 8.97 42.59 8.97 42.59 8.97 47.91 8.97 47.91 8.97 52.04 30.66 52.04 30.66 65.41 35.19 65.41 35.19 52.04 35.19 47.91 35.19 42.7 52.34 42.7 52.34 47.96 39.06 47.96 39.06 51.98 52.34 51.98 52.34 51.98 56.83 51.98 56.83 51.98 56.83 47.96 56.83 42.7 56.83 38.63 56.83 38.57 35.19 38.57"/><polygon class="cls-1" points="35.14 16.72 35.14 5.13 30.66 5.13 30.66 26.09 30.64 26.09 13.46 26.09 13.46 20.77 26.36 20.77 26.36 16.75 8.98 16.75 8.98 20.77 8.98 20.77 8.98 26.09 8.98 26.09 8.98 30.22 30.64 30.22 30.64 34.39 35.14 34.39 35.14 30.22 35.14 26.09 35.14 20.85 52.34 20.85 52.34 26.17 39.07 26.17 39.07 30.19 56.82 30.19 56.82 30.19 56.82 26.17 56.82 20.85 56.82 16.78 56.82 16.72 35.14 16.72"/></g></svg>