<svg xmlns="http://www.w3.org/2000/svg" viewBox="0 0 202.21 78.64"><defs><style>.cls-1{fill:#231815;}.cls-2{fill:#daaa4f;}.cls-3{fill:#985054;}</style></defs><title>oomediaLOGO</title><g id="圖層_2" data-name="圖層 2"><path class="cls-1" d="M84.93,32.41v6.91H83.8v-1H76.59v3.87H75.48V38.37h-7v1H67.35v-7h8.13v-2.2H68.21V24.43h7.27v-2.7h1.11v2.7h7.32v5.78H76.59v2.2Zm-9.45,5V33.43h-7v3.94Zm0-8.16V25.43H69.32v3.78Zm1.11-3.78v3.78h6.19V25.43ZM83.8,37.37V33.43H76.59v3.94Z"/><path class="cls-1" d="M126.32,27.76a21.93,21.93,0,0,1-1.52,8.91,23.41,23.41,0,0,1,2.65,2.78l-.68.86a26,26,0,0,0-2.45-2.69,15.15,15.15,0,0,1-3.82,4.6,3.12,3.12,0,0,0-.75-.66,15,15,0,0,0,3.83-4.65c-1.07-1-2.2-1.94-3.27-2.76a58.69,58.69,0,0,0,1.5-6.25L120,28l-.13-1.07c.63,0,1.36,0,2.17-.09.32-1.76.59-3.53.75-5.07l1,0c-.19,1.52-.46,3.24-.75,5l2.35-.14V25h1v1.68l1.29-.07v1l-1.29.09Zm-3.56.07c-.41,2.22-.91,4.37-1.34,6,.87.66,1.75,1.39,2.59,2.13a20.64,20.64,0,0,0,1.33-8.18v-.11Zm9.31,9a11.69,11.69,0,0,1-3.94,5.06,3.35,3.35,0,0,0-.75-.8,10.32,10.32,0,0,0,3.83-4.57Zm2.36-1.2v6.64h-1.06V35.62H127.7v-1h5.67v-2.4h-3.61v-7H127.5v-1h2.26V21.73h1v2.56H137V21.73h1v2.56h2.2v1H138v7h-3.58v2.4h5.71v1Zm-3.65-10.33v2.52H137V25.29Zm0,6H137V28.71h-6.19Zm5.78,5.23a42.06,42.06,0,0,1,3.72,4.8l-.86.46a48.36,48.36,0,0,0-3.68-4.88Z"/><path class="cls-1" d="M181.57,40.9c0,.57-.13.84-.54,1a9.39,9.39,0,0,1-2.54.16,5.1,5.1,0,0,0-.36-.86c1,0,1.88,0,2.11,0s.36-.09.36-.34V37.39c-1.25.75-2.49,1.47-3.56,2.09l-.52-.87c1-.47,2.54-1.26,4.08-2.13v-4.1h-4.15v3.36c0,2-.22,4.69-1.58,6.61a2.76,2.76,0,0,0-.8-.68,10.33,10.33,0,0,0,1.43-5.93V31.5h6.07Zm.07-12.12h1v3.08h-.93v-2.2H175.3v2.2h-.93V28.78h1V22.62h6.3Zm-5.34,0H178V25.29h2.65V23.52H176.3Zm3.19,7.39A18.1,18.1,0,0,0,176.91,34l.56-.61a19.07,19.07,0,0,1,2.68,2.06Zm1.18-10h-1.84v2.65h1.84Zm13.87,14.7v.91H182.89v-.91h3.6c-.23-.72-.59-1.67-.93-2.44l.91-.25a26.68,26.68,0,0,1,1,2.69h2.4A28.48,28.48,0,0,0,191,38.05l1,.32c-.39.79-.81,1.74-1.18,2.46Zm-.21-8.33H183.18v-.91h11.15Zm-.68-2.32h-9.92V23.55h2.9V21.76h1v1.79h2V21.76h.95v1.79h3.08Zm-9.27,7.66V33.79h8.73v4.05Zm.28-11.44h2.06v-2h-2.06Zm0,2.9h2.06v-2h-2.06Zm.72,7.71h6.69V34.65h-6.69Zm4.26-10.61v-2h-2.06v2Zm-2.06.86v2h2.06v-2Zm5.12-2.83h-2.2v2h2.2Zm0,2.83h-2.2v2h2.2Z"/><path class="cls-1" d="M65.84,56.82c0-4.13,2.25-6.7,5.4-6.7s5.41,2.57,5.41,6.7-2.23,6.8-5.41,6.8S65.84,61,65.84,56.82Zm9.71,0c0-3.54-1.72-5.74-4.31-5.74S67,53.28,67,56.82s1.7,5.83,4.28,5.83S75.55,60.37,75.55,56.82Z"/><path class="cls-1" d="M87.48,56.82c0-4.13,2.25-6.7,5.4-6.7s5.42,2.57,5.42,6.7-2.24,6.8-5.42,6.8S87.48,61,87.48,56.82Zm9.71,0c0-3.54-1.72-5.74-4.31-5.74s-4.28,2.2-4.28,5.74,1.7,5.83,4.28,5.83S97.19,60.37,97.19,56.82Z"/><path class="cls-1" d="M109.94,50.35h1.43l2.69,7.49,1,2.86h.07c.34-.94.64-1.91,1-2.86l2.69-7.49h1.43v13h-1V55.13c0-1.08.07-2.51.12-3.6h-.07l-1,2.92L115.5,62h-.85l-2.76-7.54-1-2.92h-.07c0,1.09.13,2.52.13,3.6v8.26h-1Z"/><path class="cls-1" d="M132.67,50.35h7.21v.91h-6.13V56h5.17v.91h-5.17v5.53h6.33v.93h-7.41Z"/><path class="cls-1" d="M151.58,50.35h3.08c4,0,6,2.49,6,6.47s-2,6.57-6,6.57h-3.09Zm3,12.13c3.43,0,4.95-2.28,4.95-5.66s-1.52-5.57-4.95-5.57h-1.9V62.48Z"/><path class="cls-1" d="M172.26,50.35h1.07v13h-1.07Z"/><path class="cls-1" d="M191.66,59h-5.08l-1.48,4.38H184l4.56-13h1.11l4.56,13h-1.15Zm-.28-.86-.79-2.36c-.54-1.52-1-2.9-1.43-4.47h-.07c-.45,1.57-.9,3-1.42,4.47l-.8,2.36Z"/><polygon class="cls-2" points="33.4 44.73 33.4 40.53 28.87 40.53 28.87 54.07 11.66 54.07 11.66 48.75 24.93 48.75 24.93 44.73 7.18 44.73 7.18 48.75 7.18 48.75 7.18 54.07 7.18 54.07 7.18 58.2 28.87 58.2 28.87 71.58 33.4 71.58 33.4 58.2 33.4 54.07 33.4 48.87 50.55 48.87 50.55 54.13 37.27 54.13 37.27 58.15 50.55 58.15 50.55 58.15 55.03 58.15 55.03 58.15 55.03 54.13 55.03 48.87 55.03 44.79 55.03 44.73 33.4 44.73"/><polygon class="cls-3" points="33.35 22.89 33.35 11.29 28.87 11.29 28.87 32.25 28.85 32.25 11.67 32.25 11.67 26.93 24.57 26.93 24.57 22.91 7.19 22.91 7.19 26.93 7.19 26.93 7.19 32.25 7.19 32.25 7.19 36.38 28.85 36.38 28.85 40.56 33.35 40.56 33.35 36.38 33.35 32.25 33.35 27.02 50.55 27.02 50.55 32.34 37.28 32.34 37.28 36.35 55.03 36.35 55.03 36.35 55.03 32.34 55.03 27.02 55.03 22.94 55.03 22.89 33.35 22.89"/></g></svg>