<svg id="圖層_1" data-name="圖層 1" xmlns="http://www.w3.org/2000/svg" xmlns:xlink="http://www.w3.org/1999/xlink" viewBox="0 0 511.84 384"><defs><style>.cls-1{fill:none;}.cls-2{clip-path:url(#clip-path);}.cls-3{fill:#fff;}.cls-4{fill:#e02f2f;}</style><clipPath id="clip-path" transform="translate(0 -64)"><rect class="cls-1" width="512" height="512"/></clipPath></defs><title>youtube_sub_btn</title><g class="cls-2"><path class="cls-3" d="M506.72,146.86s-5-37.64-20.34-54.22C466.91,70.91,445.1,70.78,435.1,69.55,363.47,64,256,64,256,64h-.24s-107.44,0-179,5.55c-10,1.23-31.8,1.36-51.28,23.09C10.13,109.22,5.12,146.86,5.12,146.86S0,191,0,235.22v41.4C0,320.83,5.12,365,5.12,365s5,37.63,20.34,54.18c19.48,21.73,45,21.07,56.43,23.34,40.94,4.19,174,5.49,174,5.49s107.55-.19,179.18-5.68c10-1.28,31.81-1.41,51.28-23.14C501.71,402.64,506.72,365,506.72,365s5.12-44.18,5.12-88.37V235.23C511.84,191,506.72,146.86,506.72,146.86Z" transform="translate(0 -64)"/></g><g class="cls-2"><polygon class="cls-4" points="192 96 192 288 352 192 192 96"/></g></svg>